<svg width="29" height="30" viewBox="0 0 29 30" fill="none" xmlns="http://www.w3.org/2000/svg">
  <path
    d="M23.5272 22.8853C23.5272 23.7982 22.8084 24.5332 21.9219 24.5332H7.07801C6.19144 24.5332 5.47266 23.8003 5.47266 22.8853V13.1675C5.47266 12.2525 6.19144 11.5132 7.07801 12.0232H21.9219C22.8084 11.5132 23.5272 12.2546 23.5272 13.1675V22.8853Z"
    fill="#8B9793" />
  <path
    d="M5.47278 22.8858C5.47278 23.2908 5.61567 23.6615 5.84974 23.9508L13.6963 18.7522L5.64052 12.4351C5.53281 12.6558 5.4707 12.9065 5.4707 13.17V22.8858H5.47278Z"
    fill="#8B9793" />
  <path
    d="M23.5273 22.8858C23.5273 23.2908 23.3843 23.6615 23.1503 23.9508L15.3037 18.7522L23.3595 12.4351C23.4672 12.6558 23.5293 12.9065 23.5293 13.17V22.8858H23.5273Z"
    fill="#D1D6D4" />
  <path
    d="M5.90358 12.0899L13.5616 5.79203C13.5616 5.79203 13.949 5.46631 14.5642 5.46631C15.1422 5.46631 15.5668 5.79203 15.5668 5.79203L23.1192 12.1113C23.1192 12.1113 23.4154 12.3513 23.1068 12.6213L15.5668 18.8913C15.5668 18.8913 15.1795 19.217 14.5642 19.217C13.9863 19.217 13.5616 18.8913 13.5616 18.8913L5.64258 12.4327C5.64258 12.4349 5.71715 12.272 5.90358 12.0899Z"
    fill="#183028" />
  <path
    d="M14.5641 19.2168C15.1793 19.2168 15.5667 18.8912 15.5667 18.8912L19.8773 15.3061V12.4733C19.8773 11.674 19.2517 11.0269 18.4791 11.0269H10.5476C9.77499 11.0269 9.14941 11.674 9.14941 12.4733V15.2954L13.5615 18.8933C13.5615 18.8912 13.9862 19.2168 14.5641 19.2168Z"
    fill="white" />
  <path
    d="M17.0276 13.8087H11.9733C11.7786 13.8087 11.6191 13.6437 11.6191 13.4422V13.3801C11.6191 13.1787 11.7786 13.0137 11.9733 13.0137H17.0276C17.2223 13.0137 17.3819 13.1787 17.3819 13.3801V13.4422C17.3819 13.6437 17.2223 13.8087 17.0276 13.8087Z"
    fill="#183028" />
  <path
    d="M17.0276 15.795H11.9733C11.7786 15.795 11.6191 15.63 11.6191 15.4286V15.3664C11.6191 15.165 11.7786 15 11.9733 15H17.0276C17.2223 15 17.3819 15.165 17.3819 15.3664V15.4286C17.3819 15.63 17.2223 15.795 17.0276 15.795Z"
    fill="#183028" />
</svg>
