<svg width="200" height="185" viewBox="0 0 200 185" fill="none" xmlns="http://www.w3.org/2000/svg">
<g clip-path="url(#clip0_91_3285)">
<g filter="url(#filter0_f_91_3285)">
<path fill-rule="evenodd" clip-rule="evenodd" d="M67.5506 139.199C73.8358 137.414 75.7338 129.262 80.862 125.159C85.2821 121.622 93.8067 122.5 95.3098 116.989C96.8945 111.179 88.0765 107.189 87.3972 101.199C86.6832 94.9043 94.126 88.7651 91.459 83.0378C88.9488 77.6472 81.528 76.204 75.6649 76.0046C70.3429 75.8235 66.4162 81.0796 61.17 82.0075C54.8609 83.1234 46.767 77.1854 42.3476 81.8974C38.0129 86.5192 42.5035 94.3504 43.7168 100.616C44.5741 105.043 47.7494 108.538 48.3715 113.005C49.3738 120.202 44.1482 128.539 48.4173 134.369C52.4224 139.839 61.0905 141.032 67.5506 139.199Z" fill="#B6E6D8"/>
</g>
<g filter="url(#filter1_f_91_3285)">
<path fill-rule="evenodd" clip-rule="evenodd" d="M108.534 36.8265C115.048 38.6664 117.015 47.0737 122.33 51.3049C126.911 54.9518 135.745 54.0473 137.303 59.73C138.945 65.7215 129.807 69.8367 129.103 76.0133C128.363 82.505 136.076 88.836 133.312 94.7422C130.711 100.301 123.02 101.79 116.944 101.995C111.428 102.182 107.359 96.7617 101.922 95.8048C95.3831 94.654 86.9949 100.778 82.4148 95.9183C77.9224 91.1521 82.5763 83.0761 83.8338 76.6144C84.7223 72.049 88.013 68.4454 88.6578 63.8383C89.6964 56.4166 84.2808 47.8193 88.7052 41.8067C92.8559 36.1659 101.839 34.9353 108.534 36.8265Z" fill="#F3BB90"/>
</g>
<g filter="url(#filter2_f_91_3285)">
<path fill-rule="evenodd" clip-rule="evenodd" d="M119.108 92.6887C124.593 94.222 126.25 101.228 130.725 104.754C134.583 107.793 142.022 107.039 143.334 111.775C144.717 116.768 137.021 120.197 136.428 125.344C135.805 130.754 142.301 136.03 139.973 140.952C137.783 145.584 131.306 146.825 126.189 146.996C121.545 147.152 118.118 142.635 113.539 141.837C108.033 140.878 100.969 145.981 97.1125 141.932C93.3294 137.96 97.2485 131.23 98.3074 125.845C99.0556 122.041 101.827 119.038 102.37 115.199C103.244 109.014 98.6839 101.849 102.41 96.8389C105.905 92.1382 113.47 91.1127 119.108 92.6887Z" fill="#FEE8A0"/>
</g>
<path d="M100.56 87.9131C100.56 87.9131 100.564 87.9155 100.565 87.9167C100.564 87.9155 100.561 87.9143 100.56 87.9131Z" fill="url(#paint0_linear_91_3285)"/>
<path d="M100.668 97.8564C100.491 98.0241 100.257 98.1139 100.022 98.1139C99.9051 98.1139 99.7862 98.0948 99.6727 98.0468C99.3333 97.9099 99.1137 97.5908 99.1137 97.2346V88.6266C99.1137 88.2695 99.3351 87.9504 99.6727 87.8117C99.9289 87.7102 100.212 87.7274 100.449 87.848C98.3974 85.6887 95.8915 84.1749 93.5 87.1373V103.804C93.5 107.423 97.9052 109.25 100.507 106.709" fill="url(#paint1_linear_91_3285)"/>
<path d="M111.614 90.0716L108.855 87.3657L105.039 92.2236L105.127 92.3097C105.295 92.4774 105.388 92.6967 105.388 92.9315C105.388 93.1663 105.294 93.3875 105.127 93.5552L100.671 97.8582C100.625 97.9018 100.576 97.9389 100.523 97.9715C100.523 97.9715 98.6052 99.5951 96.4864 101.702C95.2119 102.969 93.1882 104.127 94.0034 105.781C95.2302 107.99 98.4396 108.731 100.509 106.711L111.606 95.8749C113.24 94.2795 113.242 91.6697 111.612 90.0707L111.614 90.0716Z" fill="url(#paint2_linear_91_3285)"/>
<path d="M111.614 90.0716L108.855 87.3657L105.039 92.2236L105.127 92.3097C105.295 92.4774 105.388 92.6967 105.388 92.9315C105.388 93.1663 105.294 93.3875 105.127 93.5552L100.671 97.8582C100.625 97.9018 100.576 97.9389 100.523 97.9715C100.523 97.9715 98.6052 99.5951 96.4864 101.702C95.2119 102.969 93.1882 104.127 94.0034 105.781C95.2302 107.99 98.4396 108.731 100.509 106.711L111.606 95.8749C113.24 94.2795 113.242 91.6697 111.612 90.0707L111.614 90.0716Z" fill="url(#paint3_linear_91_3285)"/>
<path d="M111.613 90.0726L100.516 79.1885C97.9172 76.6385 93.5029 78.4633 93.5029 82.0874V87.1401C95.8835 84.4207 98.4003 85.6916 100.452 87.8508C100.532 87.8916 100.606 87.9433 100.672 88.0058L105.127 92.3107C105.127 92.3107 109.564 95.7363 108.243 99.161L111.607 95.8768C113.241 94.2814 113.243 91.6716 111.613 90.0726Z" fill="url(#paint4_linear_91_3285)"/>
<path fill-rule="evenodd" clip-rule="evenodd" d="M121.808 91.3977C121.485 79.9277 112.069 70.7284 100.5 70.7284C88.9315 70.7284 79.5153 79.9281 79.1931 91.3985C79.3839 91.611 79.5 91.8919 79.5 92.2V106.8C79.5 107.163 79.3384 107.489 79.0832 107.709C80.0973 109.811 82.1192 111.338 84.5233 111.663C85.174 110.38 86.5078 109.5 88.0475 109.5C90.2275 109.5 91.9948 111.264 91.9948 113.44C91.9948 115.616 90.2275 117.381 88.0475 117.381C86.3529 117.381 84.9078 116.315 84.3481 114.818C80.3634 114.378 77.0662 111.661 75.7915 108H74.5C72.2909 108 70.5 106.209 70.5 104V95C70.5 92.8019 72.273 91.018 74.4668 91.0001C74.9963 77.1036 86.4493 66 100.5 66C114.551 66 126.004 77.1036 126.534 91.0001C128.727 91.0183 130.5 92.8022 130.5 95V104C130.5 106.209 128.709 108 126.5 108H122.7C122.037 108 121.5 107.463 121.5 106.8V92.2C121.5 91.8916 121.616 91.6103 121.808 91.3977Z" fill="url(#paint5_linear_91_3285)"/>
</g>
<defs>
<filter id="filter0_f_91_3285" x="-9.5" y="26" width="155" height="164" filterUnits="userSpaceOnUse" color-interpolation-filters="sRGB">
<feFlood flood-opacity="0" result="BackgroundImageFix"/>
<feBlend mode="normal" in="SourceGraphic" in2="BackgroundImageFix" result="shape"/>
<feGaussianBlur stdDeviation="25" result="effect1_foregroundBlur_91_3285"/>
</filter>
<filter id="filter1_f_91_3285" x="30.5" y="-14" width="157" height="166" filterUnits="userSpaceOnUse" color-interpolation-filters="sRGB">
<feFlood flood-opacity="0" result="BackgroundImageFix"/>
<feBlend mode="normal" in="SourceGraphic" in2="BackgroundImageFix" result="shape"/>
<feGaussianBlur stdDeviation="25" result="effect1_foregroundBlur_91_3285"/>
</filter>
<filter id="filter2_f_91_3285" x="45.5" y="42" width="148" height="155" filterUnits="userSpaceOnUse" color-interpolation-filters="sRGB">
<feFlood flood-opacity="0" result="BackgroundImageFix"/>
<feBlend mode="normal" in="SourceGraphic" in2="BackgroundImageFix" result="shape"/>
<feGaussianBlur stdDeviation="25" result="effect1_foregroundBlur_91_3285"/>
</filter>
<linearGradient id="paint0_linear_91_3285" x1="100.542" y1="88.5564" x2="99.9476" y2="106.747" gradientUnits="userSpaceOnUse">
<stop stop-color="#E17B34"/>
<stop offset="1" stop-color="#DA6627"/>
</linearGradient>
<linearGradient id="paint1_linear_91_3285" x1="97.2885" y1="88.2949" x2="96.8448" y2="101.981" gradientUnits="userSpaceOnUse">
<stop stop-color="#E17B34"/>
<stop offset="1" stop-color="#DA6627"/>
</linearGradient>
<linearGradient id="paint2_linear_91_3285" x1="96.9594" y1="105.848" x2="107.561" y2="94.2744" gradientUnits="userSpaceOnUse">
<stop stop-color="#E87722"/>
<stop offset="1" stop-color="#F0A745"/>
</linearGradient>
<linearGradient id="paint3_linear_91_3285" x1="96.9594" y1="105.848" x2="107.561" y2="94.2744" gradientUnits="userSpaceOnUse">
<stop stop-color="#E87722"/>
<stop offset="1" stop-color="#F0A745"/>
</linearGradient>
<linearGradient id="paint4_linear_91_3285" x1="97.5202" y1="83.06" x2="106.139" y2="92.717" gradientUnits="userSpaceOnUse">
<stop stop-color="#F0C257"/>
<stop offset="0.56" stop-color="#EB8439"/>
<stop offset="1" stop-color="#E87722"/>
</linearGradient>
<linearGradient id="paint5_linear_91_3285" x1="100.5" y1="66" x2="100.5" y2="117.381" gradientUnits="userSpaceOnUse">
<stop stop-color="#E87722"/>
<stop offset="1" stop-color="#F0A745"/>
</linearGradient>
<clipPath id="clip0_91_3285">
<rect width="199" height="185" fill="white" transform="translate(0.5)"/>
</clipPath>
</defs>
</svg>
