<svg width="108" height="42" viewBox="0 0 108 42" fill="none" xmlns="http://www.w3.org/2000/svg">
<path d="M83.5453 20.4261C83.758 20.6444 83.8756 20.9299 83.8756 21.2377C83.8756 21.54 83.758 21.831 83.5453 22.0493L77.8753 27.669C77.6514 27.8873 77.3547 28.0049 77.0525 28.0049C76.9013 28.0049 76.7502 27.9825 76.6103 27.9153C76.1793 27.7362 75.8994 27.322 75.8994 26.8574V15.6236C75.8994 15.159 76.1793 14.7392 76.6103 14.5601C77.0469 14.381 77.545 14.4818 77.8753 14.812L83.5453 20.4261Z" fill="#E87722"/>
<path d="M48.0247 5.81161C47.353 6.35455 46.8716 6.99824 46.5749 7.74828C46.2783 8.49273 45.9536 9.5786 45.573 11.0115L45.2708 12.1366L41.5877 26.6224L37.2946 8.08972C36.9308 6.32097 35.9345 5.22389 33.4772 5.22389H33.4269H7.2482C6.04478 5.22949 6.0056 6.50008 6 6.51128V36.5409C6 36.5409 6.02239 37.179 6.63809 37.179H9.07293C10.8249 37.179 13.0582 36.0483 13.0582 32.9418V31.604V23.7902H22.2434C25.7417 23.7902 26.5981 21.2882 26.5981 19.8665V19.3347C26.5981 18.831 26.4246 18.5231 25.8201 18.5231H13.0582V10.9499H31.0984L36.5446 31.9175C36.7125 32.5444 37.664 35.858 37.664 35.858C38.0278 37.0222 37.9887 37.1902 38.9794 37.1902H41.1847C43.8994 37.1902 44.8342 35.5222 45.31 34.3411C45.5506 33.703 45.7242 33.4232 46.1104 31.9847L50.9129 13.9109L55.9896 31.8951C56.152 32.522 57.0419 35.8524 57.0419 35.8524C57.4058 37.0111 57.3722 37.1902 58.3629 37.1902H60.5682C63.2829 37.1902 64.2177 35.5166 64.6991 34.3299C64.9341 33.6918 65.1692 33.0817 65.561 31.6432L70.5539 10.9667H86.008C87.3346 10.9667 88.4037 11.0843 89.3664 11.3753C90.6146 11.7504 91.7229 12.6851 92.6465 14.146C93.542 15.5789 94.0514 18.0865 94.0738 21.2042C94.0738 24.7193 93.0215 27.837 91.068 29.5274C90.6314 29.9193 90.1221 30.2215 89.5176 30.4454C88.9019 30.6749 88.3029 30.8148 87.7376 30.8708C87.1275 30.938 86.3215 31.0611 85.2636 31.0667H85.2468L81.8772 31.0723H77.0355C77.0244 31.0667 77.0188 31.0667 77.0132 31.0667C75.9665 31.0667 75.9329 31.6768 75.9329 31.9343V33.1937C75.9329 35.024 77.4441 37.123 80.4779 37.123H80.5842H86.467C87.9615 37.1062 89.3049 36.9999 90.5083 36.7928C91.7173 36.5801 92.8592 36.233 93.9171 35.7293C94.9805 35.2311 95.9601 34.5706 96.85 33.7534C97.9751 32.6955 98.8931 31.5033 99.6151 30.1711C100.326 28.8334 100.847 27.3445 101.177 25.7045C101.485 24.1596 101.641 23.0569 101.641 21.221V21.1818C101.591 15.2375 99.8334 11.0171 96.3351 8.06733C94.9917 6.90868 93.4805 6.11946 91.8237 5.69966C90.2732 5.31345 88.4541 5.11754 86.3663 5.11754H67.6432C66.6133 5.12874 65.0741 5.66048 64.4864 8.07852L60.4227 26.4937L56.096 12.0638V12.075L55.8049 11.0115C55.3907 9.47226 55.0493 8.36958 54.803 7.7035C54.5511 7.03742 54.1089 6.42172 53.4596 5.85079C52.8216 5.27987 51.9148 5 50.7505 5C49.5975 5 48.6907 5.26867 48.0247 5.81161Z" fill="#183028"/>
</svg>
