<svg width="40" height="40" viewBox="0 0 40 40" fill="none" xmlns="http://www.w3.org/2000/svg">
<mask id="mask0_91_38312" style="mask-type:alpha" maskUnits="userSpaceOnUse" x="0" y="0" width="40" height="40">
<circle cx="20" cy="20" r="20" fill="#D9D9D9"/>
</mask>
<g mask="url(#mask0_91_38312)">
<circle cx="20" cy="20" r="20" fill="#FEF9F4"/>
<g clip-path="url(#clip0_91_38312)">
<path d="M21.8815 45.1865L21.4583 56.5047L17.8608 82.8428C17.6068 87.9487 15.8716 102.373 15.406 106.5C15.3213 107.139 14.7711 107.607 14.1786 107.564L9.05746 107.521C8.38028 107.521 7.83008 106.968 7.83008 106.288C7.8724 103.181 8.08402 94.5439 9.09978 82.8853C8.46493 68.7589 7.53381 54.5899 12.9936 46.3353C18.5803 37.8254 21.8815 45.1865 21.8815 45.1865Z" fill="#04A2AF"/>
<path d="M20.5703 18.7643L20.655 24.0405L15.9994 23.7852L15.7031 15.6582L20.5703 18.7643Z" fill="#F8E3D2"/>
<path d="M21.331 19.2749C21.9659 19.2324 22.5584 19.1473 22.897 18.892C24.7592 16.1688 22.6431 8.76519 22.6431 8.76519L19.6381 7.53125L15.829 9.91402L15.6174 14.8923C15.575 16.2113 16.1676 17.4878 17.3103 18.2963C18.58 18.9345 19.9767 19.3175 21.331 19.2749Z" fill="#FAE4D3"/>
<path d="M16.9301 12.7218C17.1417 11.9133 16.5492 9.99861 17.3957 10.0837C18.0305 10.2114 20.1044 10.2965 20.8239 10.2965C22.5168 10.2965 25.5218 9.65822 25.5218 7.0627C25.5218 5.78621 24.7176 5.10542 23.9135 4.76502C23.1517 4.46718 22.2629 5.36072 21.4587 5.65856C19.5965 6.29681 15.745 6.8074 14.7716 6.6372C13.6712 6.42445 12.4861 7.53074 12.4015 8.25408C12.1899 9.74332 13.2056 11.9984 13.9251 13.4877C14.3484 14.2961 14.8986 15.062 15.6181 15.7002L16.9301 12.7218Z" fill="#183028"/>
<path d="M14.7719 12.8929C15.1528 12.5525 15.83 12.6376 16.3379 13.0206C16.8034 13.4035 16.9304 14.0418 16.5495 14.3396C16.1686 14.68 15.4914 14.5949 14.9835 14.212C14.4756 13.829 14.391 13.2333 14.7719 12.8929Z" fill="#FAE4D3"/>
<path d="M5.37487 31.4853C6.30598 27.4431 8.97237 23.9966 12.7392 22.3797C14.2628 21.6989 16.0827 21.2734 18.1989 21.2734C19.8495 21.2734 21.2462 21.4011 22.4736 21.6564C22.5018 21.6564 22.53 21.6706 22.5582 21.6989C26.2404 22.5074 30.4304 26.7623 30.4304 33.2298L30.3458 53.7812C30.3458 55.1003 29.2454 56.2491 27.891 56.2491H11.0885L11.5118 35.0595L11.0885 56.2491H5.92507C4.95163 56.2491 4.14748 55.5258 3.97819 54.5471C2.7508 44.9735 4.31678 35.9956 5.37487 31.4853Z" fill="#FBE69E"/>
<path d="M30.8532 32.8042L38.6407 47.7816C38.937 48.3348 38.7677 49.0581 38.2598 49.4411L34.9163 51.7387C34.3661 52.1217 33.5619 51.994 33.1387 51.4409L23.8275 38.0804C23.4466 37.5272 23.5312 36.7613 24.0814 36.3358L28.9486 32.4213C29.5412 31.9107 30.4723 32.0809 30.8532 32.8042Z" fill="#FBE69E"/>
<path d="M17.9872 12.636C18.1142 12.8062 18.2835 12.8488 18.4528 12.7211C18.5798 12.5935 18.6221 12.4233 18.5374 12.2531C18.4105 12.0829 18.2412 12.0403 18.0719 12.168C17.9026 12.2956 17.9026 12.5084 17.9872 12.636Z" fill="#183028"/>
<path d="M22.346 12.3391C22.473 12.5093 22.6423 12.5519 22.8116 12.4242C22.9385 12.2966 22.9809 12.1264 22.8962 11.9562C22.7692 11.786 22.6 11.7434 22.4307 11.8711C22.3037 11.9562 22.219 12.1689 22.346 12.3391Z" fill="#183028"/>
<path d="M21.3737 15.3179C21.1621 15.2754 20.9082 15.1052 20.9082 15.0201C20.8658 14.9775 20.9082 14.8924 20.9505 14.8924C20.9928 14.8499 21.0774 14.8924 21.0774 14.935C21.1198 14.9775 21.2467 15.1052 21.4584 15.1052C21.5853 15.1477 21.7546 15.0626 21.8393 14.935C21.8816 14.8924 22.0509 14.5946 21.797 13.5734C21.67 12.9777 21.4584 12.4246 21.4584 12.4246C21.416 12.382 21.4584 12.2969 21.5007 12.2969C21.543 12.2544 21.6277 12.2969 21.6277 12.3395C21.6277 12.3395 21.8393 12.8926 21.9662 13.4883C22.1779 14.3393 22.1779 14.8499 21.9662 15.1052C21.8816 15.2328 21.7546 15.2754 21.67 15.3179H21.3737Z" fill="#E77825"/>
<path d="M21.416 16.5521C21.543 16.5521 21.7123 16.5096 21.8393 16.467C22.2625 16.3394 22.5588 15.999 22.5588 15.999C22.6011 15.9564 22.6011 15.8713 22.5588 15.8288C22.5165 15.7862 22.4318 15.7862 22.3895 15.8288C22.3472 15.8713 21.416 16.85 20.2733 15.8713C20.231 15.8288 20.1463 15.8288 20.104 15.8713C20.0617 15.9139 20.0617 15.999 20.104 16.0415C20.6119 16.5096 21.0774 16.5947 21.416 16.5521Z" fill="#E77825"/>
<path d="M21.4151 17.19C21.6267 17.1475 21.7537 17.0624 21.796 17.0624C21.8383 17.0198 21.8383 16.9347 21.8383 16.8922C21.796 16.8496 21.7114 16.8496 21.669 16.8496C21.669 16.8496 21.4574 16.9773 21.1612 16.8922C21.1188 16.8496 21.0342 16.8922 21.0342 16.9773C20.9919 17.0198 21.0342 17.1049 21.1188 17.1049C21.1612 17.19 21.3304 17.19 21.4151 17.19Z" fill="#E77825"/>
<path d="M10.5381 30.8048V56.1643H27.8907C27.8907 56.1643 30.2185 56.2494 30.3455 53.4837L30.4301 31.443C30.4301 31.443 29.0758 22.1247 20.9073 21.4439C20.9073 21.4439 16.9289 20.7206 13.3314 22.0822C12.1887 22.5077 10.3265 26.2946 10.5381 30.8048Z" fill="#FED241"/>
<path d="M15.9121 21.4436L18.6208 26.5496C18.9594 27.1878 19.8905 27.0176 20.0598 26.3368L20.9063 21.4436C20.9063 21.4436 19.0017 21.0607 15.9121 21.4436Z" fill="white"/>
</g>
</g>
<defs>
<clipPath id="clip0_91_38312">
<rect width="40" height="109.412" fill="white" transform="translate(3.5293 4.70508)"/>
</clipPath>
</defs>
</svg>
