<svg width="29" height="30" viewBox="0 0 29 30" fill="none" xmlns="http://www.w3.org/2000/svg">
<path d="M11.2513 23.2795C10.4683 23.7173 9.5735 23.969 8.6201 23.969C8.27389 23.969 7.93834 23.9362 7.60811 23.876C7.17135 23.7939 6.75058 23.6571 6.35644 23.471C5.74392 23.1865 5.19531 22.7925 4.7266 22.3109C3.82114 21.3751 3.28851 20.122 3.16601 18.8086C3.15003 18.6554 3.13938 18.5022 3.12873 18.3489C3.11807 18.0315 3.10742 17.7196 3.10742 17.4077C3.10742 15.8262 3.35243 14.2994 3.81049 12.8712C3.81049 12.8657 3.81049 12.8657 3.81581 12.8602C3.90103 12.5921 3.99691 12.3239 4.09811 12.0613C5.05683 9.66438 6.92635 7.74907 9.25925 6.75858C10.3618 6.28796 11.5815 6.03076 12.8598 6.03076H12.8704V9.84496C10.985 10.0091 9.36045 11.1145 8.44966 12.707C8.05551 13.391 7.79453 14.1681 7.70398 14.9944C8.18334 14.8084 8.70532 14.7044 9.25392 14.7044C11.6827 14.7044 13.6587 16.7291 13.6587 19.23C13.6587 20.0563 13.4457 20.8279 13.0675 21.4955C12.6254 22.2835 11.9703 22.8964 11.1714 23.3233" fill="#183028"/>
<path d="M23.4851 23.2795C22.7021 23.7173 21.8073 23.969 20.8539 23.969C20.5077 23.969 20.1722 23.9362 19.842 23.876C19.4052 23.7939 18.9844 23.6571 18.5903 23.471C17.9778 23.1865 17.4292 22.7925 16.9604 22.3109C16.055 21.3751 15.5224 20.122 15.3999 18.8086C15.3839 18.6554 15.3732 18.5022 15.3626 18.3489C15.3413 18.037 15.3359 17.7251 15.3359 17.4132C15.3359 15.8317 15.5809 14.3049 16.039 12.8766C16.039 12.8712 16.039 12.8712 16.0443 12.8657C16.1295 12.5975 16.2254 12.3294 16.3266 12.0667C17.2853 9.66985 19.1549 7.75454 21.4878 6.76405C22.601 6.28796 23.8153 6.03076 25.0936 6.03076H25.1043V9.84496C23.2188 10.0091 21.5943 11.1145 20.6835 12.707C20.2894 13.391 20.0284 14.1681 19.9378 14.9944C20.4172 14.8084 20.9392 14.7044 21.4878 14.7044C23.9165 14.7044 25.8926 16.7291 25.8926 19.23C25.8926 20.0563 25.6795 20.8279 25.3014 21.4955C24.8593 22.2835 24.2042 22.8964 23.4052 23.3233" fill="#8B9793"/>
</svg>
