<svg width="24" height="24" viewBox="0 0 24 24" fill="none" xmlns="http://www.w3.org/2000/svg">
<path d="M19.5 21H4.5C3.67 21 3 20.33 3 19.5L3 4.5C3 3.67 3.67 3 4.5 3L19.5 3C20.33 3 21 3.67 21 4.5V19.5C21 20.325 20.325 21 19.5 21ZM5 19H19V5L5 5L5 19Z" fill="#E87722"/>
<path d="M8.97504 6H6.5C6.225 6 6 6.225 6 6.5V8.89001C6 8.89001 6 8.89002 6.005 8.89502C7.635 8.93502 8.97504 7.62 8.97504 6Z" fill="#E87722"/>
<path d="M6 12.15V10.15C8.29 10.15 10.15 8.29 10.15 6H12.15C12.15 9.39 9.39 12.15 6 12.15Z" fill="#E87722"/>
<path d="M9.3549 14.35L10.5949 15.59C10.8099 15.805 11.1649 15.78 11.3499 15.535L13.6148 12.51C13.8098 12.25 14.1999 12.24 14.4049 12.5L17.3499 16.185C17.6099 16.51 17.3799 16.995 16.9599 16.995H7.20487C6.75987 16.995 6.53489 16.455 6.84989 16.14L8.64487 14.345C8.83987 14.155 9.1549 14.155 9.3549 14.35Z" fill="#E87722"/>
</svg>
